<svg width="32" height="32" viewBox="0 0 32 32" fill="none" xmlns="http://www.w3.org/2000/svg">
<path fill-rule="evenodd" clip-rule="evenodd" d="M16.0007 11.9997C13.7915 11.9997 12.0007 13.7905 12.0007 15.9997C12.0007 18.2088 13.7915 19.9997 16.0007 19.9997C18.2098 19.9997 20.0007 18.2088 20.0007 15.9997C20.0007 13.7905 18.2098 11.9997 16.0007 11.9997ZM9.33398 15.9997C9.33398 12.3178 12.3188 9.33301 16.0007 9.33301C19.6825 9.33301 22.6673 12.3178 22.6673 15.9997C22.6673 19.6816 19.6825 22.6663 16.0007 22.6663C12.3188 22.6663 9.33398 19.6816 9.33398 15.9997Z" fill="#362623"/>
<path fill-rule="evenodd" clip-rule="evenodd" d="M15.9993 1.33301C16.7357 1.33301 17.3327 1.92996 17.3327 2.66634V5.33301C17.3327 6.06939 16.7357 6.66634 15.9993 6.66634C15.263 6.66634 14.666 6.06939 14.666 5.33301V2.66634C14.666 1.92996 15.263 1.33301 15.9993 1.33301Z" fill="#362623"/>
<path fill-rule="evenodd" clip-rule="evenodd" d="M15.9993 25.333C16.7357 25.333 17.3327 25.93 17.3327 26.6663V29.333C17.3327 30.0694 16.7357 30.6663 15.9993 30.6663C15.263 30.6663 14.666 30.0694 14.666 29.333V26.6663C14.666 25.93 15.263 25.333 15.9993 25.333Z" fill="#362623"/>
<path fill-rule="evenodd" clip-rule="evenodd" d="M5.72451 5.72353C6.24521 5.20283 7.08943 5.20283 7.61013 5.72353L9.61013 7.72353C10.1308 8.24423 10.1308 9.08845 9.61013 9.60915C9.08943 10.1298 8.24521 10.1298 7.72451 9.60915L5.72451 7.60915C5.20381 7.08845 5.20381 6.24423 5.72451 5.72353Z" fill="#362623"/>
<path fill-rule="evenodd" clip-rule="evenodd" d="M22.3905 22.3905C22.9112 21.8698 23.7554 21.8698 24.2761 22.3905L26.2761 24.3905C26.7968 24.9112 26.7968 25.7554 26.2761 26.2761C25.7554 26.7968 24.9112 26.7968 24.3905 26.2761L22.3905 24.2761C21.8698 23.7554 21.8698 22.9112 22.3905 22.3905Z" fill="#362623"/>
<path fill-rule="evenodd" clip-rule="evenodd" d="M1.33398 16.0003C1.33398 15.2639 1.93094 14.667 2.66732 14.667H5.33398C6.07036 14.667 6.66732 15.2639 6.66732 16.0003C6.66732 16.7367 6.07036 17.3337 5.33398 17.3337H2.66732C1.93094 17.3337 1.33398 16.7367 1.33398 16.0003Z" fill="#362623"/>
<path fill-rule="evenodd" clip-rule="evenodd" d="M25.334 16.0003C25.334 15.2639 25.9309 14.667 26.6673 14.667H29.334C30.0704 14.667 30.6673 15.2639 30.6673 16.0003C30.6673 16.7367 30.0704 17.3337 29.334 17.3337H26.6673C25.9309 17.3337 25.334 16.7367 25.334 16.0003Z" fill="#362623"/>
<path fill-rule="evenodd" clip-rule="evenodd" d="M9.61013 22.3905C10.1308 22.9112 10.1308 23.7554 9.61013 24.2761L7.61013 26.2761C7.08943 26.7968 6.24521 26.7968 5.72451 26.2761C5.20381 25.7554 5.20381 24.9112 5.72451 24.3905L7.72451 22.3905C8.24521 21.8698 9.08943 21.8698 9.61013 22.3905Z" fill="#362623"/>
<path fill-rule="evenodd" clip-rule="evenodd" d="M26.2761 5.72353C26.7968 6.24423 26.7968 7.08845 26.2761 7.60915L24.2761 9.60915C23.7554 10.1298 22.9112 10.1298 22.3905 9.60915C21.8698 9.08845 21.8698 8.24423 22.3905 7.72353L24.3905 5.72353C24.9112 5.20283 25.7554 5.20283 26.2761 5.72353Z" fill="#362623"/>
</svg>
