<svg width="32" height="32" viewBox="0 0 32 32" fill="none" xmlns="http://www.w3.org/2000/svg">
<path fill-rule="evenodd" clip-rule="evenodd" d="M22.666 21.3337C22.3124 21.3337 21.9733 21.4741 21.7232 21.7242C21.4732 21.9742 21.3327 22.3134 21.3327 22.667V28.0003C21.3327 28.7367 20.7357 29.3337 19.9993 29.3337C19.263 29.3337 18.666 28.7367 18.666 28.0003V22.667C18.666 21.6061 19.0874 20.5887 19.8376 19.8386C20.5877 19.0884 21.6051 18.667 22.666 18.667H27.9993C28.7357 18.667 29.3327 19.2639 29.3327 20.0003C29.3327 20.7367 28.7357 21.3337 27.9993 21.3337H22.666Z" fill="#362623"/>
<path fill-rule="evenodd" clip-rule="evenodd" d="M9.33333 4C10.0697 4 10.6667 4.59695 10.6667 5.33333V7.74859C10.871 8.21214 11.2038 8.60932 11.6276 8.89189C12.1086 9.21253 12.6807 9.3682 13.2578 9.33547L13.3333 10.6667V9.33333C14.3942 9.33333 15.4116 9.75476 16.1618 10.5049C16.9119 11.2551 17.3333 12.2725 17.3333 13.3333C17.3333 13.687 17.4738 14.0261 17.7239 14.2761C17.9739 14.5262 18.313 14.6667 18.6667 14.6667C19.0203 14.6667 19.3594 14.5262 19.6095 14.2761C19.8595 14.0261 20 13.687 20 13.3333C20 12.2725 20.4214 11.2551 21.1716 10.5049C21.9217 9.75476 22.9391 9.33333 24 9.33333H28C28.7364 9.33333 29.3333 9.93029 29.3333 10.6667C29.3333 11.403 28.7364 12 28 12H24C23.6464 12 23.3072 12.1405 23.0572 12.3905C22.8071 12.6406 22.6667 12.9797 22.6667 13.3333C22.6667 14.3942 22.2452 15.4116 21.4951 16.1618C20.7449 16.9119 19.7275 17.3333 18.6667 17.3333C17.6058 17.3333 16.5884 16.9119 15.8382 16.1618C15.0881 15.4116 14.6667 14.3942 14.6667 13.3333C14.6667 12.9797 14.5262 12.6406 14.2761 12.3905C14.0329 12.1472 13.7053 12.0077 13.362 12.0003C12.2237 12.0548 11.0974 11.7433 10.1484 11.1107C9.18651 10.4694 8.45901 9.53293 8.0755 8.44231C8.02553 8.30019 8 8.15064 8 8V5.33333C8 4.59695 8.59695 4 9.33333 4Z" fill="#362623"/>
<path fill-rule="evenodd" clip-rule="evenodd" d="M2.66602 14.6663C2.66602 13.93 3.26297 13.333 3.99935 13.333H6.66602C7.72688 13.333 8.7443 13.7544 9.49444 14.5046C10.2446 15.2547 10.666 16.2721 10.666 17.333V18.6663C10.666 19.02 10.8065 19.3591 11.0565 19.6091C11.3066 19.8592 11.6457 19.9997 11.9993 19.9997C13.0602 19.9997 14.0776 20.4211 14.8278 21.1712C15.5779 21.9214 15.9993 22.9388 15.9993 23.9997V29.333C15.9993 30.0694 15.4024 30.6663 14.666 30.6663C13.9296 30.6663 13.3327 30.0694 13.3327 29.333V23.9997C13.3327 23.6461 13.1922 23.3069 12.9422 23.0569C12.6921 22.8068 12.353 22.6663 11.9993 22.6663C10.9385 22.6663 9.92107 22.2449 9.17092 21.4948C8.42078 20.7446 7.99935 19.7272 7.99935 18.6663V17.333C7.99935 16.9794 7.85887 16.6402 7.60882 16.3902C7.35878 16.1402 7.01964 15.9997 6.66602 15.9997H3.99935C3.26297 15.9997 2.66602 15.4027 2.66602 14.6663Z" fill="#362623"/>
<path fill-rule="evenodd" clip-rule="evenodd" d="M16.0007 3.99967C9.37323 3.99967 4.00065 9.37226 4.00065 15.9997C4.00065 22.6271 9.37323 27.9997 16.0007 27.9997C22.6281 27.9997 28.0006 22.6271 28.0006 15.9997C28.0006 9.37226 22.6281 3.99967 16.0007 3.99967ZM1.33398 15.9997C1.33398 7.8995 7.90047 1.33301 16.0007 1.33301C24.1008 1.33301 30.6673 7.8995 30.6673 15.9997C30.6673 24.0998 24.1008 30.6663 16.0007 30.6663C7.90047 30.6663 1.33398 24.0998 1.33398 15.9997Z" fill="#362623"/>
</svg>
