<svg width="27" height="26" viewBox="0 0 27 26" fill="none" xmlns="http://www.w3.org/2000/svg">
<path fill-rule="evenodd" clip-rule="evenodd" d="M24.5297 4.00008H6.11287L4.5393 1.17954C4.36268 0.862953 4.02854 0.666748 3.66602 0.666748H1.66602C1.11373 0.666748 0.666016 1.11446 0.666016 1.66675C0.666016 2.21903 1.11373 2.66675 1.66602 2.66675H3.07881L4.63174 5.45028L8.21317 13.3746L8.21684 13.3827L8.53229 14.0806L4.9365 17.9161C4.67796 18.1919 4.59702 18.5899 4.72733 18.9448C4.85764 19.2997 5.17691 19.5507 5.55249 19.5936L8.83001 19.9682C12.9296 20.4367 17.0692 20.4367 21.1687 19.9682L24.4463 19.5936C24.995 19.5309 25.3889 19.0353 25.3262 18.4865C25.2635 17.9378 24.7679 17.5438 24.2192 17.6066L20.9416 17.9811C16.993 18.4324 13.0058 18.4324 9.0571 17.9811L7.75641 17.8325L10.3956 15.0174C10.4211 14.9901 10.4448 14.9618 10.4667 14.9327L11.4705 15.0633C12.877 15.2463 14.2988 15.2822 15.7128 15.1703C19.0108 14.9095 22.0674 13.3402 24.2013 10.8122L24.9721 9.89909C24.998 9.86842 25.022 9.83622 25.044 9.80267L26.4805 7.61354C27.4987 6.06185 26.3856 4.00008 24.5297 4.00008ZM10.541 12.9255C10.3205 12.8968 10.1303 12.7567 10.0375 12.5548L10.0357 12.5509L7.075 6.00008H24.5297C24.7948 6.00008 24.9538 6.29462 24.8083 6.51629L23.4049 8.65506L22.673 9.52211C20.8836 11.6419 18.3206 12.9578 15.5552 13.1766C14.2797 13.2774 12.9972 13.2451 11.7285 13.08L10.541 12.9255Z" fill="#ECAD56"/>
<path d="M7.66602 21.6667C6.56145 21.6667 5.66602 22.5622 5.66602 23.6667C5.66602 24.7713 6.56145 25.6667 7.66602 25.6667C8.77059 25.6667 9.66602 24.7713 9.66602 23.6667C9.66602 22.5622 8.77059 21.6667 7.66602 21.6667Z" fill="#ECAD56"/>
<path d="M20.3327 23.6667C20.3327 22.5622 21.2281 21.6667 22.3327 21.6667C23.4373 21.6667 24.3327 22.5622 24.3327 23.6667C24.3327 24.7713 23.4373 25.6667 22.3327 25.6667C21.2281 25.6667 20.3327 24.7713 20.3327 23.6667Z" fill="#ECAD56"/>
</svg>
