<svg width="32" height="32" viewBox="0 0 32 32" fill="none" xmlns="http://www.w3.org/2000/svg">
<path fill-rule="evenodd" clip-rule="evenodd" d="M10.0051 1.50868C10.3922 1.2875 10.8642 1.2744 11.263 1.47377L21.2914 6.48798L30.0051 1.50868C30.4178 1.27287 30.9248 1.27457 31.3359 1.51313C31.747 1.75169 32 2.19105 32 2.66634V23.9997C32 24.4781 31.7436 24.9199 31.3282 25.1573L21.9949 30.4907C21.6078 30.7118 21.1358 30.7249 20.737 30.5256L10.7086 25.5114L1.99485 30.4907C1.58218 30.7265 1.07518 30.7248 0.664098 30.4862C0.253011 30.2477 0 29.8083 0 29.333V7.99968C0 7.5212 0.256381 7.07941 0.671815 6.84202L10.0051 1.50868ZM10.7086 4.17803L2.66667 8.77344V27.0354L10.0051 22.842C10.3922 22.6208 10.8642 22.6077 11.263 22.8071L21.2914 27.8213L29.3333 23.2259V4.96391L21.9949 9.15733C21.6078 9.37851 21.1358 9.39161 20.737 9.19225L10.7086 4.17803Z" fill="#362623"/>
<path fill-rule="evenodd" clip-rule="evenodd" d="M10.6673 1.33301C11.4037 1.33301 12.0007 1.92996 12.0007 2.66634V23.9997C12.0007 24.7361 11.4037 25.333 10.6673 25.333C9.93094 25.333 9.33398 24.7361 9.33398 23.9997V2.66634C9.33398 1.92996 9.93094 1.33301 10.6673 1.33301Z" fill="#362623"/>
<path fill-rule="evenodd" clip-rule="evenodd" d="M21.3333 6.66699C22.0697 6.66699 22.6667 7.26395 22.6667 8.00033V29.3337C22.6667 30.07 22.0697 30.667 21.3333 30.667C20.597 30.667 20 30.07 20 29.3337V8.00033C20 7.26395 20.597 6.66699 21.3333 6.66699Z" fill="#362623"/>
</svg>
