<svg width="32" height="32" viewBox="0 0 32 32" fill="none" xmlns="http://www.w3.org/2000/svg">
<path fill-rule="evenodd" clip-rule="evenodd" d="M8.39052 8.39052C8.91122 7.86983 9.75544 7.86983 10.2761 8.39052L23.6095 21.7239C24.1302 22.2446 24.1302 23.0888 23.6095 23.6095C23.0888 24.1302 22.2446 24.1302 21.7239 23.6095L8.39052 10.2761C7.86983 9.75544 7.86983 8.91122 8.39052 8.39052Z" fill="#30292F"/>
<path fill-rule="evenodd" clip-rule="evenodd" d="M22.6667 8C23.403 8 24 8.59695 24 9.33333V22.6667C24 23.403 23.403 24 22.6667 24H9.33333C8.59695 24 8 23.403 8 22.6667C8 21.9303 8.59695 21.3333 9.33333 21.3333H21.3333V9.33333C21.3333 8.59695 21.9303 8 22.6667 8Z" fill="#30292F"/>
</svg>
