<svg width="32" height="32" viewBox="0 0 32 32" fill="none" xmlns="http://www.w3.org/2000/svg">
<path fill-rule="evenodd" clip-rule="evenodd" d="M22.666 10.6663C22.666 9.92996 23.263 9.33301 23.9993 9.33301H25.3327C27.1008 9.33301 28.7965 10.0354 30.0467 11.2856C31.297 12.5359 31.9993 14.2316 31.9993 15.9997C31.9993 17.7678 31.297 19.4635 30.0467 20.7137C28.7965 21.964 27.1008 22.6663 25.3327 22.6663H23.9993C23.263 22.6663 22.666 22.0694 22.666 21.333C22.666 20.5966 23.263 19.9997 23.9993 19.9997H25.3327C26.3935 19.9997 27.411 19.5782 28.1611 18.8281C28.9113 18.078 29.3327 17.0605 29.3327 15.9997C29.3327 14.9388 28.9113 13.9214 28.1611 13.1712C27.411 12.4211 26.3935 11.9997 25.3327 11.9997H23.9993C23.263 11.9997 22.666 11.4027 22.666 10.6663Z" fill="#362623"/>
<path fill-rule="evenodd" clip-rule="evenodd" d="M1.33398 10.6663C1.33398 9.92996 1.93094 9.33301 2.66732 9.33301H24.0007C24.737 9.33301 25.334 9.92996 25.334 10.6663V22.6663C25.334 24.4345 24.6316 26.1301 23.3814 27.3804C22.1311 28.6306 20.4354 29.333 18.6673 29.333H8.00065C6.23254 29.333 4.53685 28.6306 3.28661 27.3804C2.03636 26.1301 1.33398 24.4345 1.33398 22.6663V10.6663ZM4.00065 11.9997V22.6663C4.00065 23.7272 4.42208 24.7446 5.17222 25.4948C5.92237 26.2449 6.93979 26.6663 8.00065 26.6663H18.6673C19.7282 26.6663 20.7456 26.2449 21.4957 25.4948C22.2459 24.7446 22.6673 23.7272 22.6673 22.6663V11.9997H4.00065Z" fill="#362623"/>
<path fill-rule="evenodd" clip-rule="evenodd" d="M7.99935 0C8.73573 0 9.33268 0.596954 9.33268 1.33333V5.33333C9.33268 6.06971 8.73573 6.66667 7.99935 6.66667C7.26297 6.66667 6.66602 6.06971 6.66602 5.33333V1.33333C6.66602 0.596954 7.26297 0 7.99935 0Z" fill="#362623"/>
<path fill-rule="evenodd" clip-rule="evenodd" d="M13.3333 0C14.0697 0 14.6667 0.596954 14.6667 1.33333V5.33333C14.6667 6.06971 14.0697 6.66667 13.3333 6.66667C12.597 6.66667 12 6.06971 12 5.33333V1.33333C12 0.596954 12.597 0 13.3333 0Z" fill="#362623"/>
<path fill-rule="evenodd" clip-rule="evenodd" d="M18.6673 0C19.4037 0 20.0007 0.596954 20.0007 1.33333V5.33333C20.0007 6.06971 19.4037 6.66667 18.6673 6.66667C17.9309 6.66667 17.334 6.06971 17.334 5.33333V1.33333C17.334 0.596954 17.9309 0 18.6673 0Z" fill="#362623"/>
</svg>
