<svg width="83" height="83" viewBox="0 0 83 83" fill="none" xmlns="http://www.w3.org/2000/svg">
<circle cx="41.5" cy="41.5" r="39.5" stroke="#362623" stroke-width="3" stroke-linecap="round" stroke-linejoin="bevel" stroke-dasharray="20 20"/>
<path fill-rule="evenodd" clip-rule="evenodd" d="M42.0007 25.6667C42.6362 25.6667 43.1834 26.1154 43.3081 26.7386C43.9107 29.7518 45.7351 32.6801 48.1669 34.6256C51.0731 36.9505 52.6673 39.8393 52.6673 43.0001C52.6673 45.8291 51.5435 48.5422 49.5431 50.5426C47.5427 52.5429 44.8296 53.6667 42.0007 53.6667C39.1717 53.6667 36.4586 52.5429 34.4582 50.5426C32.4578 48.5422 31.334 45.8291 31.334 43.0001C31.334 39.8393 32.9282 36.9505 35.8344 34.6256C38.2662 32.6801 40.0906 29.7518 40.6932 26.7386C40.8179 26.1154 41.3651 25.6667 42.0007 25.6667ZM42.0007 51.0001C44.1224 51.0001 46.1572 50.1572 47.6575 48.6569C49.1578 47.1566 50.0007 45.1218 50.0007 43.0001C50.0007 40.8275 48.9282 38.6496 46.5011 36.7079C44.6384 35.2177 43.0748 33.2534 42.0007 31.0712C40.9265 33.2534 39.3629 35.2177 37.5002 36.7079C35.0731 38.6496 34.0007 40.8275 34.0007 43.0001C34.0007 45.1218 34.8435 47.1566 36.3438 48.6569C37.8441 50.1572 39.8789 51.0001 42.0007 51.0001Z" fill="#362623"/>
</svg>
