<svg width="83" height="83" viewBox="0 0 83 83" fill="none" xmlns="http://www.w3.org/2000/svg">
<circle cx="41.5" cy="41.5" r="39.5" stroke="#362623" stroke-width="3" stroke-linecap="round" stroke-linejoin="bevel" stroke-dasharray="20 20"/>
<path fill-rule="evenodd" clip-rule="evenodd" d="M39.1722 26.5051C39.9224 25.7549 40.9398 25.3335 42.0007 25.3335C43.0615 25.3335 44.0789 25.7549 44.8291 26.5051C45.5792 27.2552 46.0007 28.2726 46.0007 29.3335V42.619C46.9529 43.3331 47.7007 44.2925 48.1599 45.4011C48.7215 46.7569 48.82 48.2602 48.4402 49.6778C48.0603 51.0953 47.2234 52.3479 46.0591 53.2413C44.8948 54.1347 43.4682 54.619 42.0007 54.619C40.5331 54.619 39.1065 54.1347 37.9422 53.2413C36.778 52.3479 35.941 51.0953 35.5611 49.6778C35.1813 48.2602 35.2798 46.7569 35.8415 45.4011C36.3007 44.2925 37.0485 43.3331 38.0007 42.619V29.3335C38.0007 28.2726 38.4221 27.2552 39.1722 26.5051ZM42.0007 28.0002C41.647 28.0002 41.3079 28.1406 41.0578 28.3907C40.8078 28.6407 40.6673 28.9799 40.6673 29.3335V43.3335C40.6673 43.8099 40.4132 44.25 40.0007 44.4882C39.2381 44.9285 38.6421 45.6081 38.3051 46.4216C37.9682 47.2351 37.9091 48.137 38.137 48.9876C38.3648 49.8381 38.867 50.5897 39.5656 51.1257C40.2642 51.6617 41.1201 51.9523 42.0007 51.9523C42.8812 51.9523 43.7371 51.6617 44.4357 51.1257C45.1343 50.5897 45.6365 49.8381 45.8644 48.9876C46.0923 48.137 46.0331 47.2351 45.6962 46.4216C45.3592 45.6081 44.7632 44.9285 44.0007 44.4882C43.5881 44.25 43.334 43.8099 43.334 43.3335V29.3335C43.334 28.9799 43.1935 28.6407 42.9435 28.3907C42.6934 28.1406 42.3543 28.0002 42.0007 28.0002Z" fill="black"/>
</svg>
