<svg width="83" height="83" viewBox="0 0 83 83" fill="none" xmlns="http://www.w3.org/2000/svg">
<circle cx="41.5" cy="41.5" r="39.5" stroke="#362623" stroke-width="3" stroke-linecap="round" stroke-linejoin="bevel" stroke-dasharray="20 20"/>
<path fill-rule="evenodd" clip-rule="evenodd" d="M42.0007 28.9999C35.3732 28.9999 30.0007 34.3725 30.0007 40.9999C30.0007 47.6273 35.3732 52.9999 42.0007 52.9999C48.6281 52.9999 54.0006 47.6273 54.0006 40.9999C54.0006 34.3725 48.6281 28.9999 42.0007 28.9999ZM27.334 40.9999C27.334 32.8997 33.9005 26.3333 42.0007 26.3333C50.1008 26.3333 56.6673 32.8997 56.6673 40.9999C56.6673 49.1001 50.1008 55.6666 42.0007 55.6666C33.9005 55.6666 27.334 49.1001 27.334 40.9999Z" fill="black"/>
<path fill-rule="evenodd" clip-rule="evenodd" d="M42.0009 31.6667C42.7373 31.6667 43.3343 32.2637 43.3343 33.0001V41.0001C43.3343 41.4622 43.095 41.8913 42.7019 42.1343C42.3088 42.3772 41.818 42.3993 41.4047 42.1927L36.0713 39.526C35.4127 39.1967 35.1457 38.3958 35.475 37.7371C35.8044 37.0785 36.6053 36.8115 37.2639 37.1408L40.6676 38.8427V33.0001C40.6676 32.2637 41.2646 31.6667 42.0009 31.6667Z" fill="black"/>
</svg>
