<svg width="44" height="30" viewBox="0 0 44 30" fill="none" xmlns="http://www.w3.org/2000/svg">
<rect x="0.5" y="0.5" width="43" height="29" rx="5.5" fill="white" stroke="#D9D9D9"/>
<path fill-rule="evenodd" clip-rule="evenodd" d="M22.3147 21.4462C20.8168 22.7315 18.8736 23.5075 16.7503 23.5075C12.0126 23.5075 8.17188 19.6442 8.17188 14.8787C8.17188 10.1132 12.0126 6.25 16.7503 6.25C18.8736 6.25 20.8168 7.02594 22.3147 8.31129C23.8127 7.02594 25.7558 6.25 27.8791 6.25C32.6169 6.25 36.4576 10.1132 36.4576 14.8787C36.4576 19.6442 32.6169 23.5075 27.8791 23.5075C25.7558 23.5075 23.8127 22.7315 22.3147 21.4462Z" fill="#ED0006"/>
<path fill-rule="evenodd" clip-rule="evenodd" d="M22.3164 21.4462C24.1609 19.8635 25.3305 17.5085 25.3305 14.8787C25.3305 12.249 24.1609 9.89396 22.3164 8.31129C23.8144 7.02594 25.7575 6.25 27.8808 6.25C32.6186 6.25 36.4593 10.1132 36.4593 14.8787C36.4593 19.6442 32.6186 23.5075 27.8808 23.5075C25.7575 23.5075 23.8144 22.7315 22.3164 21.4462Z" fill="#F9A000"/>
<path fill-rule="evenodd" clip-rule="evenodd" d="M22.3148 8.31128C24.1593 9.89395 25.3288 12.2489 25.3288 14.8787C25.3288 17.5084 24.1593 19.8634 22.3148 21.4461C20.4703 19.8634 19.3008 17.5084 19.3008 14.8787C19.3008 12.2489 20.4703 9.89395 22.3148 8.31128Z" fill="#FF5E00"/>
</svg>
