<svg width="44" height="30" viewBox="0 0 44 30" fill="none" xmlns="http://www.w3.org/2000/svg">
<rect x="0.5" y="0.5" width="43" height="29" rx="5.5" fill="white" stroke="#D9D9D9"/>
<path d="M18.5234 29.375L43.352 22.1875V24.375C43.352 27.1364 41.1134 29.375 38.352 29.375H18.5234Z" fill="#FD6020"/>
<path fill-rule="evenodd" clip-rule="evenodd" d="M38.6388 12.0136C40.0048 12.0136 40.7561 12.618 40.7561 13.7597C40.8244 14.6328 40.2097 15.3715 39.3901 15.5058L41.2341 17.9907H39.7999L38.229 15.573H38.0924V17.9907H36.9314V12.0136H38.6388ZM38.0924 14.7671H38.4339C39.1852 14.7671 39.5267 14.4313 39.5267 13.8268C39.5267 13.2896 39.1852 12.9538 38.4339 12.9538H38.0924V14.7671ZM32.9018 17.9907H36.1801V16.9833H34.0629V15.3715H36.1118V14.3641H34.0629V13.0209H36.1801V12.0136H32.9018V17.9907V17.9907ZM29.4869 16.0431L27.9161 12.0136H26.6867L29.2137 18.125H29.8284L32.3554 12.0136H31.1261L29.4869 16.0431V16.0431ZM15.6225 15.0357C15.6225 16.7147 16.9884 18.125 18.6959 18.125C19.2423 18.125 19.7203 17.9907 20.1984 17.7892V16.446C19.8569 16.849 19.3788 17.1176 18.8325 17.1176C17.7397 17.1176 16.8518 16.3117 16.8518 15.2372V15.1029C16.7835 14.0283 17.6714 13.0881 18.7642 13.0209C19.3106 13.0209 19.8569 13.2896 20.1984 13.6925V12.3494C19.7886 12.0807 19.2423 12.0136 18.7642 12.0136C16.9884 11.8792 15.6225 13.2896 15.6225 15.0357V15.0357ZM13.5052 14.297C12.8223 14.0283 12.6174 13.894 12.6174 13.5582C12.6857 13.1553 13.0272 12.8195 13.4369 12.8866C13.7784 12.8866 14.1199 13.0881 14.3931 13.3567L15.0078 12.5508C14.5297 12.1479 13.915 11.8792 13.3003 11.8792C12.3442 11.8121 11.5246 12.5508 11.4563 13.4911V13.5582C11.4563 14.3641 11.7978 14.8342 12.8906 15.17C13.1637 15.2372 13.4369 15.3715 13.7101 15.5058C13.915 15.6401 14.0516 15.8416 14.0516 16.1102C14.0516 16.5804 13.6418 16.9833 13.232 16.9833H13.1637C12.6174 16.9833 12.1393 16.6475 11.9344 16.1774L11.1831 16.9161C11.5929 17.6549 12.4125 18.0578 13.232 18.0578C14.3248 18.125 15.2127 17.3191 15.281 16.2446V16.0431C15.2127 15.2372 14.8712 14.8342 13.5052 14.297V14.297ZM9.54397 17.9907H10.705V12.0136H9.54397V17.9907V17.9907ZM4.14844 12.0136H5.85588H6.19737C7.83652 12.0807 9.13418 13.4239 9.06588 15.0357C9.06588 15.9088 8.65609 16.7147 7.97312 17.3191C7.35843 17.7892 6.60716 18.0579 5.85588 17.9907H4.14844V12.0136ZM5.65098 16.9833C6.19737 17.0505 6.81205 16.849 7.22183 16.5132C7.63162 16.1102 7.83651 15.573 7.83651 14.9686C7.83651 14.4313 7.63162 13.894 7.22183 13.4911C6.81205 13.1553 6.19737 12.9538 5.65098 13.0209H5.3095V16.9833H5.65098Z" fill="black"/>
<path fill-rule="evenodd" clip-rule="evenodd" d="M23.6808 11.875C21.9733 11.875 20.5391 13.2182 20.5391 14.9643C20.5391 16.6433 21.905 18.0536 23.6808 18.1208C25.4565 18.1879 26.8225 16.7776 26.8908 15.0315C26.8225 13.2853 25.4565 11.875 23.6808 11.875V11.875Z" fill="#FD6020"/>
</svg>
