<svg width="44" height="30" viewBox="0 0 44 30" fill="none" xmlns="http://www.w3.org/2000/svg">
<rect x="0.5" y="0.5" width="43" height="29" rx="5.5" fill="white" stroke="#D9D9D9"/>
<path fill-rule="evenodd" clip-rule="evenodd" d="M13.3566 20.3228H10.691L8.69219 12.7405C8.59732 12.3917 8.39588 12.0833 8.09956 11.938C7.36007 11.5728 6.5452 11.2821 5.65625 11.1355V10.8436H9.95024C10.5429 10.8436 10.9873 11.2821 11.0614 11.7914L12.0985 17.2608L14.7628 10.8436H17.3542L13.3566 20.3228ZM18.8358 20.3228H16.3184L18.3914 10.8436H20.9087L18.8358 20.3228ZM24.1656 13.4696C24.2397 12.9591 24.6842 12.6672 25.2027 12.6672C26.0176 12.5939 26.9052 12.7405 27.646 13.1044L28.0905 11.0635C27.3497 10.7716 26.5349 10.625 25.7954 10.625C23.3521 10.625 21.5742 11.938 21.5742 13.7603C21.5742 15.1466 22.8335 15.8745 23.7224 16.313C24.6842 16.7503 25.0546 17.0422 24.9805 17.4794C24.9805 18.1353 24.2397 18.4272 23.5002 18.4272C22.6113 18.4272 21.7223 18.2086 20.9087 17.8434L20.4643 19.8856C21.3532 20.2495 22.3149 20.3961 23.2039 20.3961C25.9435 20.4681 27.646 19.1564 27.646 17.1875C27.646 14.7081 24.1656 14.5628 24.1656 13.4696V13.4696ZM36.4562 20.3228L34.4574 10.8436H32.3104C31.8659 10.8436 31.4215 11.1355 31.2733 11.5728L27.572 20.3228H30.1634L30.6807 18.9378H33.8648L34.1611 20.3228H36.4562ZM32.6808 13.3963L33.4203 16.9689H31.3474L32.6808 13.3963Z" fill="#172B85"/>
</svg>
