<svg width="46" height="46" viewBox="0 0 46 46" fill="none" xmlns="http://www.w3.org/2000/svg">
<circle cx="23" cy="23" r="23" fill="white"/>
<path fill-rule="evenodd" clip-rule="evenodd" d="M30.1477 16.25H16.3351L15.155 14.1346C15.0225 13.8972 14.7719 13.75 14.5 13.75H13C12.5858 13.75 12.25 14.0858 12.25 14.5C12.25 14.9142 12.5858 15.25 13 15.25H14.0596L15.2243 17.3377L17.9104 23.2809L17.9131 23.2869L18.1497 23.8104L15.4529 26.687C15.259 26.8939 15.1983 27.1924 15.296 27.4585C15.3937 27.7247 15.6332 27.913 15.9149 27.9452L18.373 28.2261C21.4477 28.5775 24.5524 28.5775 27.627 28.2261L30.0852 27.9452C30.4967 27.8981 30.7922 27.5264 30.7452 27.1148C30.6981 26.7033 30.3264 26.4078 29.9149 26.4549L27.4567 26.7358C24.4952 27.0742 21.5048 27.0742 18.5433 26.7358L17.5678 26.6243L19.5472 24.513C19.5663 24.4925 19.5841 24.4713 19.6005 24.4494L20.3533 24.5474C21.4083 24.6847 22.4746 24.7116 23.5351 24.6277C26.0086 24.4321 28.301 23.2551 29.9015 21.3591L30.4795 20.6743C30.499 20.6513 30.517 20.6271 30.5335 20.6019L31.6109 18.9601C32.3745 17.7963 31.5397 16.25 30.1477 16.25ZM19.6563 22.944C19.4909 22.9225 19.3482 22.8175 19.2786 22.666L19.2772 22.6631L17.0567 17.75H30.1477C30.3466 17.75 30.4658 17.9709 30.3567 18.1372L29.3042 19.7412L28.7552 20.3915C27.4132 21.9814 25.4909 22.9683 23.4169 23.1324C22.4603 23.208 21.4984 23.1837 20.5469 23.0599L19.6563 22.944Z" fill="black"/>
<path d="M17.5 29.5C16.6716 29.5 16 30.1716 16 31C16 31.8284 16.6716 32.5 17.5 32.5C18.3284 32.5 19 31.8284 19 31C19 30.1716 18.3284 29.5 17.5 29.5Z" fill="black"/>
<path d="M27 31C27 30.1716 27.6716 29.5 28.5 29.5C29.3284 29.5 30 30.1716 30 31C30 31.8284 29.3284 32.5 28.5 32.5C27.6716 32.5 27 31.8284 27 31Z" fill="black"/>
</svg>
