<svg width="630" height="387" viewBox="0 0 630 387" fill="none" xmlns="http://www.w3.org/2000/svg">
<path d="M8.51323 175.419C108.881 148.576 218.835 166.03 319.594 203.611C421.786 240.809 515.692 298.659 570.816 383.781C625.94 468.904 642.283 581.298 618.965 680.485C594.214 780.055 529.279 867.326 448.814 931.096C367.963 993.433 271.059 1033.18 167.122 1041C64.6192 1048.44 -44.9161 1023.96 -114.832 958.158C-183.838 892.881 -213.749 787.188 -234.532 678.286C-254.407 569.909 -266.063 457.798 -225.329 366.245C-185.504 274.166 -93.2885 202.644 8.51323 175.419Z" fill="#EFEFEF"/>
<path d="M-36.2157 -64.8678C11.8676 -45.7759 103.509 10.0855 85.4067 80.7962C62.7793 169.185 -19.9521 258.987 65.3252 320.93C125.754 364.823 243.87 433.006 208.868 510.434C173.866 587.863 155.057 597.338 151.521 592.388" stroke="#ECAD56" stroke-width="3" stroke-linecap="round" stroke-dasharray="12 12"/>
</svg>
