<svg width="619" height="387" viewBox="0 0 619 387" fill="none" xmlns="http://www.w3.org/2000/svg">
<path d="M746.359 191.927C819.789 265.427 859.651 369.377 877.484 475.427C896.366 582.527 893.219 692.777 847.063 783.077C800.907 873.377 711.742 943.727 614.185 973.127C515.579 1001.48 407.532 988.877 312.073 951.077C217.663 912.227 134.792 848.177 76.0483 762.077C18.3533 677.027 -15.2147 569.927 6.81429 476.477C28.8433 384.077 105.42 305.327 189.34 232.877C273.26 161.477 364.523 95.3271 464.178 84.8271C563.833 73.2771 671.88 117.377 746.359 191.927Z" fill="#EFEFEF"/>
<path d="M608.707 -89.8911C603.513 -82.3382 423.759 73.3255 519.446 219.898C615.133 366.47 386.215 534.27 298.377 566.379" stroke="#ECAD56" stroke-width="3" stroke-linecap="round" stroke-dasharray="12 12"/>
</svg>
