<svg width="54" height="54" viewBox="0 0 54 54" fill="none" xmlns="http://www.w3.org/2000/svg">
<path fill-rule="evenodd" clip-rule="evenodd" d="M33.666 32.3332C33.3124 32.3332 32.9733 32.4736 32.7232 32.7237C32.4732 32.9737 32.3327 33.3129 32.3327 33.6665V38.9998C32.3327 39.7362 31.7357 40.3332 30.9993 40.3332C30.263 40.3332 29.666 39.7362 29.666 38.9998V33.6665C29.666 32.6056 30.0874 31.5882 30.8376 30.8381C31.5877 30.0879 32.6051 29.6665 33.666 29.6665H38.9994C39.7357 29.6665 40.3327 30.2635 40.3327 30.9998C40.3327 31.7362 39.7357 32.3332 38.9994 32.3332H33.666Z" fill="#362623"/>
<path fill-rule="evenodd" clip-rule="evenodd" d="M20.3333 15C21.0697 15 21.6667 15.597 21.6667 16.3333V18.7486C21.871 19.2121 22.2038 19.6093 22.6276 19.8919C23.1086 20.2125 23.6807 20.3682 24.2578 20.3355L24.3333 21.6667V20.3333C25.3942 20.3333 26.4116 20.7548 27.1618 21.5049C27.9119 22.2551 28.3333 23.2725 28.3333 24.3333C28.3333 24.687 28.4738 25.0261 28.7239 25.2761C28.9739 25.5262 29.313 25.6667 29.6667 25.6667C30.0203 25.6667 30.3594 25.5262 30.6095 25.2761C30.8595 25.0261 31 24.687 31 24.3333C31 23.2725 31.4214 22.2551 32.1716 21.5049C32.9217 20.7548 33.9391 20.3333 35 20.3333H39C39.7364 20.3333 40.3333 20.9303 40.3333 21.6667C40.3333 22.403 39.7364 23 39 23H35C34.6464 23 34.3072 23.1405 34.0572 23.3905C33.8071 23.6406 33.6667 23.9797 33.6667 24.3333C33.6667 25.3942 33.2452 26.4116 32.4951 27.1618C31.7449 27.9119 30.7275 28.3333 29.6667 28.3333C28.6058 28.3333 27.5884 27.9119 26.8382 27.1618C26.0881 26.4116 25.6667 25.3942 25.6667 24.3333C25.6667 23.9797 25.5262 23.6406 25.2761 23.3905C25.0329 23.1472 24.7053 23.0077 24.362 23.0003C23.2237 23.0548 22.0974 22.7433 21.1484 22.1107C20.1865 21.4694 19.459 20.5329 19.0755 19.4423C19.0255 19.3002 19 19.1506 19 19V16.3333C19 15.597 19.597 15 20.3333 15Z" fill="#362623"/>
<path fill-rule="evenodd" clip-rule="evenodd" d="M13.666 25.6668C13.666 24.9304 14.263 24.3335 14.9993 24.3335H17.666C18.7269 24.3335 19.7443 24.7549 20.4944 25.5051C21.2446 26.2552 21.666 27.2726 21.666 28.3335V29.6668C21.666 30.0205 21.8065 30.3596 22.0565 30.6096C22.3066 30.8597 22.6457 31.0002 22.9993 31.0002C24.0602 31.0002 25.0776 31.4216 25.8278 32.1717C26.5779 32.9219 26.9993 33.9393 26.9993 35.0002V40.3335C26.9993 41.0699 26.4024 41.6668 25.666 41.6668C24.9296 41.6668 24.3327 41.0699 24.3327 40.3335V35.0002C24.3327 34.6465 24.1922 34.3074 23.9422 34.0574C23.6921 33.8073 23.353 33.6668 22.9993 33.6668C21.9385 33.6668 20.9211 33.2454 20.1709 32.4953C19.4208 31.7451 18.9993 30.7277 18.9993 29.6668V28.3335C18.9993 27.9799 18.8589 27.6407 18.6088 27.3907C18.3588 27.1406 18.0196 27.0002 17.666 27.0002H14.9993C14.263 27.0002 13.666 26.4032 13.666 25.6668Z" fill="#362623"/>
<path fill-rule="evenodd" clip-rule="evenodd" d="M27.0007 15.0002C20.3732 15.0002 15.0007 20.3727 15.0007 27.0002C15.0007 33.6276 20.3732 39.0002 27.0007 39.0002C33.6281 39.0002 39.0006 33.6276 39.0006 27.0002C39.0006 20.3727 33.6281 15.0002 27.0007 15.0002ZM12.334 27.0002C12.334 18.9 18.9005 12.3335 27.0007 12.3335C35.1008 12.3335 41.6673 18.9 41.6673 27.0002C41.6673 35.1003 35.1008 41.6668 27.0007 41.6668C18.9005 41.6668 12.334 35.1003 12.334 27.0002Z" fill="#362623"/>
<circle cx="27" cy="27" r="26" stroke="#ECAD56" stroke-width="2" stroke-linecap="round" stroke-dasharray="8 8"/>
</svg>
