<svg width="54" height="54" viewBox="0 0 54 54" fill="none" xmlns="http://www.w3.org/2000/svg">
<path fill-rule="evenodd" clip-rule="evenodd" d="M27.0007 24.0002C24.7915 24.0002 23.0007 25.791 23.0007 28.0002C23.0007 30.2093 24.7915 32.0002 27.0007 32.0002C29.2098 32.0002 31.0007 30.2093 31.0007 28.0002C31.0007 25.791 29.2098 24.0002 27.0007 24.0002ZM20.334 28.0002C20.334 24.3183 23.3188 21.3335 27.0007 21.3335C30.6825 21.3335 33.6673 24.3183 33.6673 28.0002C33.6673 31.6821 30.6825 34.6668 27.0007 34.6668C23.3188 34.6668 20.334 31.6821 20.334 28.0002Z" fill="#362623"/>
<path fill-rule="evenodd" clip-rule="evenodd" d="M26.9993 13.3335C27.7357 13.3335 28.3327 13.9304 28.3327 14.6668V17.3335C28.3327 18.0699 27.7357 18.6668 26.9993 18.6668C26.263 18.6668 25.666 18.0699 25.666 17.3335V14.6668C25.666 13.9304 26.263 13.3335 26.9993 13.3335Z" fill="#362623"/>
<path fill-rule="evenodd" clip-rule="evenodd" d="M26.9993 37.3335C27.7357 37.3335 28.3327 37.9304 28.3327 38.6668V41.3335C28.3327 42.0699 27.7357 42.6668 26.9993 42.6668C26.263 42.6668 25.666 42.0699 25.666 41.3335V38.6668C25.666 37.9304 26.263 37.3335 26.9993 37.3335Z" fill="#362623"/>
<path fill-rule="evenodd" clip-rule="evenodd" d="M16.7245 17.724C17.2452 17.2033 18.0894 17.2033 18.6101 17.724L20.6101 19.724C21.1308 20.2447 21.1308 21.0889 20.6101 21.6096C20.0894 22.1303 19.2452 22.1303 18.7245 21.6096L16.7245 19.6096C16.2038 19.0889 16.2038 18.2447 16.7245 17.724Z" fill="#362623"/>
<path fill-rule="evenodd" clip-rule="evenodd" d="M33.3905 34.3905C33.9112 33.8698 34.7554 33.8698 35.2761 34.3905L37.2761 36.3905C37.7968 36.9112 37.7968 37.7554 37.2761 38.2761C36.7554 38.7968 35.9112 38.7968 35.3905 38.2761L33.3905 36.2761C32.8698 35.7554 32.8698 34.9112 33.3905 34.3905Z" fill="#362623"/>
<path fill-rule="evenodd" clip-rule="evenodd" d="M12.334 27.9998C12.334 27.2635 12.9309 26.6665 13.6673 26.6665H16.334C17.0704 26.6665 17.6673 27.2635 17.6673 27.9998C17.6673 28.7362 17.0704 29.3332 16.334 29.3332H13.6673C12.9309 29.3332 12.334 28.7362 12.334 27.9998Z" fill="#362623"/>
<path fill-rule="evenodd" clip-rule="evenodd" d="M36.334 27.9998C36.334 27.2635 36.9309 26.6665 37.6673 26.6665H40.334C41.0704 26.6665 41.6673 27.2635 41.6673 27.9998C41.6673 28.7362 41.0704 29.3332 40.334 29.3332H37.6673C36.9309 29.3332 36.334 28.7362 36.334 27.9998Z" fill="#362623"/>
<path fill-rule="evenodd" clip-rule="evenodd" d="M20.6101 34.3905C21.1308 34.9112 21.1308 35.7554 20.6101 36.2761L18.6101 38.2761C18.0894 38.7968 17.2452 38.7968 16.7245 38.2761C16.2038 37.7554 16.2038 36.9112 16.7245 36.3905L18.7245 34.3905C19.2452 33.8698 20.0894 33.8698 20.6101 34.3905Z" fill="#362623"/>
<path fill-rule="evenodd" clip-rule="evenodd" d="M37.2761 17.724C37.7968 18.2447 37.7968 19.0889 37.2761 19.6096L35.2761 21.6096C34.7554 22.1303 33.9112 22.1303 33.3905 21.6096C32.8698 21.0889 32.8698 20.2447 33.3905 19.724L35.3905 17.724C35.9112 17.2033 36.7554 17.2033 37.2761 17.724Z" fill="#362623"/>
<circle cx="27" cy="27" r="26" stroke="#ECAD56" stroke-width="2" stroke-linecap="round" stroke-dasharray="8 8"/>
</svg>
