<svg width="54" height="54" viewBox="0 0 54 54" fill="none" xmlns="http://www.w3.org/2000/svg">
<path fill-rule="evenodd" clip-rule="evenodd" d="M21.0051 12.5092C21.3922 12.288 21.8642 12.2749 22.263 12.4743L32.2914 17.4885L41.0051 12.5092C41.4178 12.2734 41.9248 12.2751 42.3359 12.5136C42.747 12.7522 43 13.1915 43 13.6668V35.0002C43 35.4786 42.7436 35.9204 42.3282 36.1578L32.9949 41.4912C32.6078 41.7123 32.1358 41.7254 31.737 41.5261L21.7086 36.5119L12.9949 41.4912C12.5822 41.727 12.0752 41.7253 11.6641 41.4867C11.253 41.2481 11 40.8088 11 40.3335V19.0002C11 18.5217 11.2564 18.0799 11.6718 17.8425L21.0051 12.5092ZM21.7086 15.1785L13.6667 19.7739V38.0359L21.0051 33.8425C21.3922 33.6213 21.8642 33.6082 22.263 33.8076L32.2914 38.8218L40.3333 34.2264V15.9644L32.9949 20.1578C32.6078 20.379 32.1358 20.3921 31.737 20.1927L21.7086 15.1785Z" fill="#362623"/>
<path fill-rule="evenodd" clip-rule="evenodd" d="M21.6673 12.3335C22.4037 12.3335 23.0007 12.9304 23.0007 13.6668V35.0002C23.0007 35.7365 22.4037 36.3335 21.6673 36.3335C20.9309 36.3335 20.334 35.7365 20.334 35.0002V13.6668C20.334 12.9304 20.9309 12.3335 21.6673 12.3335Z" fill="#362623"/>
<path fill-rule="evenodd" clip-rule="evenodd" d="M32.3333 17.6665C33.0697 17.6665 33.6667 18.2635 33.6667 18.9998V40.3332C33.6667 41.0696 33.0697 41.6665 32.3333 41.6665C31.597 41.6665 31 41.0696 31 40.3332V18.9998C31 18.2635 31.597 17.6665 32.3333 17.6665Z" fill="#362623"/>
<circle cx="27" cy="27" r="26" stroke="#ECAD56" stroke-width="2" stroke-linecap="round" stroke-dasharray="8 8"/>
</svg>
