<svg width="54" height="54" viewBox="0 0 54 54" fill="none" xmlns="http://www.w3.org/2000/svg">
<path fill-rule="evenodd" clip-rule="evenodd" d="M33.666 21.6668C33.666 20.9304 34.263 20.3335 34.9993 20.3335H36.3327C38.1008 20.3335 39.7965 21.0359 41.0467 22.2861C42.297 23.5364 42.9993 25.2321 42.9993 27.0002C42.9993 28.7683 42.297 30.464 41.0467 31.7142C39.7965 32.9644 38.1008 33.6668 36.3327 33.6668H34.9993C34.263 33.6668 33.666 33.0699 33.666 32.3335C33.666 31.5971 34.263 31.0002 34.9993 31.0002H36.3327C37.3935 31.0002 38.411 30.5787 39.1611 29.8286C39.9113 29.0784 40.3327 28.061 40.3327 27.0002C40.3327 25.9393 39.9113 24.9219 39.1611 24.1717C38.411 23.4216 37.3935 23.0002 36.3327 23.0002H34.9993C34.263 23.0002 33.666 22.4032 33.666 21.6668Z" fill="#362623"/>
<path fill-rule="evenodd" clip-rule="evenodd" d="M12.334 21.6668C12.334 20.9304 12.9309 20.3335 13.6673 20.3335H35.0007C35.737 20.3335 36.334 20.9304 36.334 21.6668V33.6668C36.334 35.4349 35.6316 37.1306 34.3814 38.3809C33.1311 39.6311 31.4354 40.3335 29.6673 40.3335H19.0007C17.2325 40.3335 15.5368 39.6311 14.2866 38.3809C13.0364 37.1306 12.334 35.4349 12.334 33.6668V21.6668ZM15.0007 23.0002V33.6668C15.0007 34.7277 15.4221 35.7451 16.1722 36.4953C16.9224 37.2454 17.9398 37.6668 19.0007 37.6668H29.6673C30.7282 37.6668 31.7456 37.2454 32.4957 36.4953C33.2459 35.7451 33.6673 34.7277 33.6673 33.6668V23.0002H15.0007Z" fill="#362623"/>
<path fill-rule="evenodd" clip-rule="evenodd" d="M18.9993 11C19.7357 11 20.3327 11.597 20.3327 12.3333V16.3333C20.3327 17.0697 19.7357 17.6667 18.9993 17.6667C18.263 17.6667 17.666 17.0697 17.666 16.3333V12.3333C17.666 11.597 18.263 11 18.9993 11Z" fill="#362623"/>
<path fill-rule="evenodd" clip-rule="evenodd" d="M24.3333 11C25.0697 11 25.6667 11.597 25.6667 12.3333V16.3333C25.6667 17.0697 25.0697 17.6667 24.3333 17.6667C23.597 17.6667 23 17.0697 23 16.3333V12.3333C23 11.597 23.597 11 24.3333 11Z" fill="#362623"/>
<path fill-rule="evenodd" clip-rule="evenodd" d="M29.6673 11C30.4037 11 31.0007 11.597 31.0007 12.3333V16.3333C31.0007 17.0697 30.4037 17.6667 29.6673 17.6667C28.9309 17.6667 28.334 17.0697 28.334 16.3333V12.3333C28.334 11.597 28.9309 11 29.6673 11Z" fill="#362623"/>
<circle cx="27" cy="27" r="26" stroke="#ECAD56" stroke-width="2" stroke-linecap="round" stroke-dasharray="8 8"/>
</svg>
